<svg xmlns="http://www.w3.org/2000/svg" width="160" height="320" class="svgbob">
  <style>.svgbob line, .svgbob path, .svgbob circle, .svgbob rect, .svgbob polygon {
  stroke: black;
  stroke-width: 2;
  stroke-opacity: 1;
  fill-opacity: 1;
  stroke-linecap: round;
  stroke-linejoin: miter;
}

.svgbob text {
  white-space: pre;
  fill: black;
  font-family: Iosevka Fixed, monospace;
  font-size: 14px;
}

.svgbob rect.backdrop {
  stroke: none;
  fill: white;
}

.svgbob .broken {
  stroke-dasharray: 8;
}

.svgbob .filled {
  fill: black;
}

.svgbob .bg_filled {
  fill: white;
  stroke-width: 1;
}

.svgbob .nofill {
  fill: white;
}

.svgbob .end_marked_arrow {
  marker-end: url(#arrow);
}

.svgbob .start_marked_arrow {
  marker-start: url(#arrow);
}

.svgbob .end_marked_diamond {
  marker-end: url(#diamond);
}

.svgbob .start_marked_diamond {
  marker-start: url(#diamond);
}

.svgbob .end_marked_circle {
  marker-end: url(#circle);
}

.svgbob .start_marked_circle {
  marker-start: url(#circle);
}

.svgbob .end_marked_open_circle {
  marker-end: url(#open_circle);
}

.svgbob .start_marked_open_circle {
  marker-start: url(#open_circle);
}

.svgbob .end_marked_big_open_circle {
  marker-end: url(#big_open_circle);
}

.svgbob .start_marked_big_open_circle {
  marker-start: url(#big_open_circle);
}

</style>
  <defs>
    <marker id="arrow" viewBox="-2 -2 8 8" refX="4" refY="2" markerWidth="7" markerHeight="7" orient="auto-start-reverse">
      <polygon points="0,0 0,4 4,2 0,0"></polygon>
    </marker>
    <marker id="diamond" viewBox="-2 -2 8 8" refX="4" refY="2" markerWidth="7" markerHeight="7" orient="auto-start-reverse">
      <polygon points="0,2 2,0 4,2 2,4 0,2"></polygon>
    </marker>
    <marker id="circle" viewBox="0 0 8 8" refX="4" refY="4" markerWidth="7" markerHeight="7" orient="auto-start-reverse">
      <circle cx="4" cy="4" r="2" class="filled"></circle>
    </marker>
    <marker id="open_circle" viewBox="0 0 8 8" refX="4" refY="4" markerWidth="7" markerHeight="7" orient="auto-start-reverse">
      <circle cx="4" cy="4" r="2" class="bg_filled"></circle>
    </marker>
    <marker id="big_open_circle" viewBox="0 0 8 8" refX="4" refY="4" markerWidth="7" markerHeight="7" orient="auto-start-reverse">
      <circle cx="4" cy="4" r="3" class="bg_filled"></circle>
    </marker>
  </defs>
  <rect class="backdrop" x="0" y="0" width="160" height="320"></rect>
  <rect x="36" y="264" width="112" height="32" class="solid nofill" rx="4"></rect>
  <text x="58" y="284" >Evaluate</text>
  <text x="50" y="28" >Your</text>
  <text x="90" y="28" >Data</text>
  <path d="M 56,32 A 16,16 0,0,0 56,48" class="nofill"></path>
  <text x="58" y="44" >movies.csv</text>
  <path d="M 136,32 A 16,16 0,0,1 136,48" class="nofill"></path>
  <polygon points="88,84 96,84 92,96" class="filled"></polygon>
  <text x="50" y="124" >Split</text>
  <text x="98" y="124" >Data</text>
  <polygon points="88,164 96,164 92,176" class="filled"></polygon>
  <text x="50" y="204" >Train</text>
  <text x="98" y="204" >Model</text>
  <polygon points="88,244 96,244 92,256" class="filled"></polygon>
  <g>
    <path d="M 40,8 A 4,4 0,0,0 36,12" class="nofill"></path>
    <line x1="36" y1="12" x2="36" y2="52" class="solid"></line>
    <line x1="40" y1="8" x2="144" y2="8" class="solid"></line>
    <path d="M 144,8 A 4,4 0,0,1 148,12" class="nofill"></path>
    <line x1="148" y1="12" x2="148" y2="52" class="solid"></line>
    <path d="M 36,52 A 4,4 0,0,0 40,56" class="nofill"></path>
    <line x1="40" y1="56" x2="144" y2="56" class="solid"></line>
    <line x1="92" y1="56" x2="92" y2="84" class="solid"></line>
    <path d="M 148,52 A 4,4 0,0,1 144,56" class="nofill"></path>
  </g>
  <g>
    <path d="M 40,104 A 4,4 0,0,0 36,108" class="nofill"></path>
    <line x1="36" y1="108" x2="36" y2="132" class="solid"></line>
    <line x1="40" y1="104" x2="144" y2="104" class="solid"></line>
    <path d="M 144,104 A 4,4 0,0,1 148,108" class="nofill"></path>
    <line x1="148" y1="108" x2="148" y2="132" class="solid"></line>
    <path d="M 36,132 A 4,4 0,0,0 40,136" class="nofill"></path>
    <line x1="40" y1="136" x2="144" y2="136" class="solid"></line>
    <line x1="92" y1="136" x2="92" y2="164" class="solid"></line>
    <path d="M 148,132 A 4,4 0,0,1 144,136" class="nofill"></path>
  </g>
  <g>
    <path d="M 40,184 A 4,4 0,0,0 36,188" class="nofill"></path>
    <line x1="36" y1="188" x2="36" y2="212" class="solid"></line>
    <line x1="40" y1="184" x2="144" y2="184" class="solid"></line>
    <path d="M 144,184 A 4,4 0,0,1 148,188" class="nofill"></path>
    <line x1="148" y1="188" x2="148" y2="212" class="solid"></line>
    <path d="M 36,212 A 4,4 0,0,0 40,216" class="nofill"></path>
    <line x1="40" y1="216" x2="144" y2="216" class="solid"></line>
    <line x1="92" y1="216" x2="92" y2="244" class="solid"></line>
    <path d="M 148,212 A 4,4 0,0,1 144,216" class="nofill"></path>
  </g>
</svg>